<svg height="512" viewBox="0 0 64 64" width="512" xmlns="http://www.w3.org/2000/svg"><g id="Blender-Kitchen-Mixer-Food-Smoothie-2" data-name="Blender-Kitchen-Mixer-Food-Smoothie"><path d="m60 33h-28.83a12.027 12.027 0 0 1 .93-7.04 10 10 0 0 0 -17.1 7.04h-11a1 1 0 0 0 -.99 1.11l1.99 20.89h54l1.99-20.89a1 1 0 0 0 -.99-1.11z" fill="#bddbff"/><circle cx="13" cy="9" fill="#bddbff" r="2"/><g fill="#57a4ff"><path d="m13 12a3 3 0 1 0 -3-3 3 3 0 0 0 3 3zm0-4a1 1 0 1 1 -1 1 1 1 0 0 1 1-1z"/><circle cx="20" cy="10" r="2"/><path d="m61.49 32.67a2.016 2.016 0 0 0 -1.49-.67v-25a5 5 0 0 0 -5-5h-46a5 5 0 0 0 -5 5v25a2.006 2.006 0 0 0 -1.99 2.2l1.99 20.89a1 1 0 0 0 1 .91h54a1 1 0 0 0 1-.91l1.98-20.88a1.947 1.947 0 0 0 -.49-1.54zm-55.49-25.67a3.009 3.009 0 0 1 3-3h46a3.009 3.009 0 0 1 3 3v7h-52zm0 9h52v16h-2.04c.02-.33.04-.67.04-1a12.985 12.985 0 0 0 -24.17-6.61 10.859 10.859 0 0 0 -6.83-2.39 11.011 11.011 0 0 0 -10.95 10h-8.05zm48 15c0 .33-.02.66-.05 1h-21.9c-.03-.34-.05-.67-.05-1a11 11 0 0 1 22 0zm-23.96 1h-13.98a9.016 9.016 0 0 1 8.94-8 8.9 8.9 0 0 1 5.92 2.23 12.859 12.859 0 0 0 -.92 4.77c0 .33.02.67.04 1zm29.95 2.02-1.9 19.98h-52.18l-1.91-20h56c0 .01 0 .01-.01.02z"/><path d="m58 59a1 1 0 0 1 -1 1h-50a1 1 0 0 1 -1-1v-1h-2v1a3 3 0 0 0 3 3h50a3 3 0 0 0 3-3v-1h-2z"/><path d="m53 12h2a1 1 0 0 0 0-2h-2a1 1 0 0 0 0 2z"/><path d="m46 12h2a1 1 0 0 0 0-2h-2a1 1 0 0 0 0 2z"/><path d="m39 12h2a1 1 0 0 0 0-2h-2a1 1 0 0 0 0 2z"/><path d="m29 40h6a2 2 0 0 0 2-2v-1a1 1 0 0 0 -2 0v1h-6v-1a1 1 0 0 0 -2 0v1a2 2 0 0 0 2 2z"/><path d="m43 22v2a7.008 7.008 0 0 1 7 7h2a9.011 9.011 0 0 0 -9-9z"/><path d="m11 19h2v2h-2z"/><path d="m9 21h2v2h-2z"/><path d="m11 23h2v2h-2z"/><path d="m13 21h2v2h-2z"/></g></g></svg>